<?xml version="1.0" standalone="no"?>
<!DOCTYPE svg PUBLIC "-//W3C//DTD SVG 20010904//EN"
 "http://www.w3.org/TR/2001/REC-SVG-20010904/DTD/svg10.dtd">
<svg version="1.0" xmlns="http://www.w3.org/2000/svg"
 width="260.000000pt" height="260.000000pt" viewBox="0 0 260.000000 260.000000"
 preserveAspectRatio="xMidYMid meet">
<metadata>
Created by potrace 1.11, written by Peter Selinger 2001-2013
</metadata>
<g transform="translate(0.000000,260.000000) scale(0.100000,-0.100000)"
fill="#000000" stroke="none">
<path d="M0 1300 l0 -1300 1300 0 1300 0 0 1300 0 1300 -1300 0 -1300 0 0
-1300z m1428 675 c284 -67 486 -257 552 -519 24 -96 26 -258 5 -361 -37 -178
-158 -336 -316 -413 -153 -76 -156 -76 -594 -77 -214 0 -395 -3 -402 -8 -15
-9 -40 1 -47 19 -11 30 12 51 61 58 57 7 105 34 130 73 17 25 18 63 21 473 5
646 -2 674 -156 701 -46 8 -63 16 -67 30 -14 43 -4 44 377 43 307 -1 374 -4
436 -19z"/>
<path d="M1093 1890 l-23 -9 0 -518 c0 -343 4 -532 11 -558 23 -83 69 -106
216 -107 127 -1 190 22 272 97 112 104 162 253 163 480 0 288 -72 459 -231
544 -78 41 -135 58 -246 71 -107 12 -132 12 -162 0z"/>
</g>
</svg>
